<svg aria-hidden="true" style="position: absolute; width: 0; height: 0; overflow: hidden;" version="1.1" xmlns="http://www.w3.org/2000/svg" xmlns:xlink="http://www.w3.org/1999/xlink">
<defs>
<symbol id="icon-smartphone" viewBox="0 0 19 32">
<path fill="#757575" style="fill: var(--color1, #757575)" d="M16 1.85h-13.176c-1.557 0-2.824 1.266-2.824 2.822v24.458c0 1.556 1.267 2.822 2.824 2.822h13.176c1.557 0 2.824-1.266 2.824-2.822v-24.458c0-1.556-1.267-2.822-2.824-2.822zM2.824 3.732h13.176c0.519 0 0.941 0.422 0.941 0.941v19.754h-15.059v-19.754c0-0.519 0.422-0.941 0.941-0.941zM16 30.071h-13.176c-0.519 0-0.941-0.422-0.941-0.941v-2.822h15.059v2.822c0 0.519-0.422 0.941-0.941 0.941z"></path>
<path fill="#757575" style="fill: var(--color1, #757575)" d="M4.43 27.698c0.368 0.343 0.368 0.9 0 1.243s-0.963 0.343-1.331 0c-0.368-0.343-0.368-0.9 0-1.243s0.963-0.343 1.331 0z"></path>
</symbol>
<symbol id="icon-email" viewBox="0 0 39 32">
<path fill="currentColor" style="fill: var(--color1, #757575)" d="M35.692 2.417h-32c-2.036 0-3.692 1.655-3.692 3.69v22.142c0 2.035 1.656 3.691 3.692 3.691h32c2.036 0 3.692-1.655 3.692-3.691v-22.142c0-2.035-1.656-3.69-3.692-3.69zM35.692 4.877c0.167 0 0.326 0.035 0.472 0.095l-16.472 14.269-16.472-14.269c0.145-0.060 0.305-0.095 0.472-0.095h32zM35.692 29.48h-32c-0.679 0-1.231-0.551-1.231-1.23v-20.678l16.424 14.227c0.232 0.201 0.519 0.3 0.806 0.3s0.575-0.1 0.806-0.3l16.424-14.227v20.678c0 0.679-0.552 1.23-1.231 1.23z"></path>
</symbol>
</defs>
</svg>
